<?xml version="1.0" encoding="UTF-8" standalone="no"?>
<!-- Created with Inkscape (http://www.inkscape.org/) -->

<svg
   width="210mm"
   height="297mm"
   viewBox="0 0 210 297"
   version="1.1"
   id="svg5"
   inkscape:version="1.1.1 (3bf5ae0d25, 2021-09-20)"
   sodipodi:docname="sot.svg"
   xmlns:inkscape="http://www.inkscape.org/namespaces/inkscape"
   xmlns:sodipodi="http://sodipodi.sourceforge.net/DTD/sodipodi-0.dtd"
   xmlns="http://www.w3.org/2000/svg"
   xmlns:svg="http://www.w3.org/2000/svg">
  <sodipodi:namedview
     id="namedview7"
     pagecolor="#ffffff"
     bordercolor="#666666"
     borderopacity="1.0"
     inkscape:pageshadow="2"
     inkscape:pageopacity="0.0"
     inkscape:pagecheckerboard="0"
     inkscape:document-units="mm"
     showgrid="false"
     inkscape:zoom="0.74118967"
     inkscape:cx="396.6596"
     inkscape:cy="561.93443"
     inkscape:window-width="1920"
     inkscape:window-height="1017"
     inkscape:window-x="-8"
     inkscape:window-y="-8"
     inkscape:window-maximized="1"
     inkscape:current-layer="layer1" />
  <defs
     id="defs2" />
  <g
     inkscape:label="Layer 1"
     inkscape:groupmode="layer"
     id="layer1">
    <g
       id="g1044"
       transform="translate(18.5625,-10.709134)"
       inkscape:export-filename="C:\Users\vinic\OneDrive\Asztali gép\SoT_honlap\Honlap\pictures\SeaofThievesLOGO.jpg"
       inkscape:export-xdpi="96"
       inkscape:export-ydpi="96">
      <path
         style="fill:#b9b9b9;fill-opacity:1;stroke-width:0.264583"
         d="m 95.166134,166.97484 c 0,-0.36381 0.06006,-0.51263 0.133453,-0.33073 0.0734,0.1819 0.0734,0.47955 0,0.66145 -0.0734,0.18191 -0.133453,0.0331 -0.133453,-0.33072 z m 7.498846,-4.7625 c 0.0899,-0.14553 0.27556,-0.26459 0.41249,-0.26459 0.13694,0 0.24897,0.11906 0.24897,0.26459 0,0.14552 -0.18562,0.26458 -0.41249,0.26458 -0.22687,0 -0.3389,-0.11906 -0.24897,-0.26458 z m -14.574678,-1.88865 c -0.114113,-0.18464 -0.07719,-0.23916 0.09141,-0.13496 0.155576,0.0961 0.343167,0.0252 0.416868,-0.15756 0.09591,-0.2379 0.139939,-0.2428 0.15489,-0.0172 0.03018,0.45532 -0.438047,0.67404 -0.663169,0.30978 z m 16.223918,-0.52544 c 0.17948,-0.18082 0.39297,-0.26211 0.47443,-0.18065 0.0815,0.0815 -0.0654,0.22941 -0.32632,0.32877 -0.37708,0.14358 -0.40747,0.11319 -0.14811,-0.14812 z M 83.713526,155.6639 c -0.329107,-0.41965 -0.319749,-0.42901 0.0999,-0.0999 0.254661,0.19972 0.463021,0.40808 0.463021,0.46302 0,0.21777 -0.217272,0.0776 -0.562916,-0.36312 z m 9.244557,-1.30522 c 0.190994,-0.0764 0.419197,-0.067 0.507119,0.0209 0.08792,0.0879 -0.06835,0.15046 -0.347266,0.13897 -0.308226,-0.0127 -0.370919,-0.0754 -0.159853,-0.15985 z m 8.780857,-0.86198 c 0,-0.13693 0.0992,-0.31029 0.22049,-0.38524 0.12127,-0.0749 0.22049,0.0371 0.22049,0.24897 0,0.21188 -0.0992,0.38524 -0.22049,0.38524 -0.12127,0 -0.22049,-0.11204 -0.22049,-0.24897 z m -4.282941,-0.72552 c 0.190995,-0.0764 0.419198,-0.067 0.507119,0.0209 0.08792,0.0879 -0.06835,0.15046 -0.347265,0.13897 -0.308227,-0.0127 -0.37092,-0.0754 -0.159854,-0.15985 z m 29.947531,-6.00457 c 0,-0.0549 0.20836,-0.2633 0.46302,-0.46303 0.41964,-0.3291 0.429,-0.31974 0.0999,0.0999 -0.34564,0.44073 -0.56291,0.58089 -0.56291,0.36313 z m -45.442192,-0.34708 c 0.254661,-0.0665 0.67138,-0.0665 0.926041,0 0.254662,0.0665 0.0463,0.12101 -0.46302,0.12101 -0.509323,0 -0.717683,-0.0545 -0.463021,-0.12101 z m 1.785937,0.0784 c 0,-0.0572 0.178594,-0.17251 0.396875,-0.25628 0.218281,-0.0838 0.396875,-0.037 0.396875,0.10399 0,0.14095 -0.178594,0.25628 -0.396875,0.25628 -0.218281,0 -0.396875,-0.0468 -0.396875,-0.10399 z m -4.9405,-0.4621 c -0.265902,-0.10476 0.349979,-0.18503 1.368625,-0.17837 1.861299,0.0121 1.890641,0.10597 0.08658,0.27682 -0.534462,0.0506 -1.189306,0.006 -1.455208,-0.0984 z m 13.341021,-0.13831 c 0.181901,-0.0734 0.479557,-0.0734 0.661458,0 0.181901,0.0734 0.03307,0.13346 -0.330729,0.13346 -0.363802,0 -0.51263,-0.0601 -0.330729,-0.13346 z m -14.643368,-0.83512 0.504028,-0.57715 -1.297778,-0.0462 -1.297778,-0.0462 1.121084,-0.10111 c 1.601863,-0.14448 2.06197,0.18526 1.167717,0.83685 l -0.701301,0.511 z m 1.695321,0.30045 c 0.190996,-0.0764 0.419199,-0.067 0.507118,0.0209 0.08792,0.0879 -0.06835,0.15045 -0.347265,0.13897 -0.308225,-0.0127 -0.37092,-0.0754 -0.159853,-0.15986 z m 1.901693,-0.38512 c 0,-0.12534 0.297656,-0.2279 0.661458,-0.2279 0.363802,0 0.661459,0.0457 0.661459,0.10145 0,0.0558 -0.297657,0.15835 -0.661459,0.2279 -0.363802,0.0695 -0.661458,0.0239 -0.661458,-0.10145 z m 33.287888,-0.67322 c 0.191,-0.0764 0.4192,-0.067 0.50712,0.0209 0.0879,0.0879 -0.0683,0.15045 -0.34726,0.13896 -0.30823,-0.0127 -0.37092,-0.0754 -0.15986,-0.15985 z m -41.274998,-0.52916 c 0.190996,-0.0764 0.4192,-0.067 0.507119,0.0209 0.08792,0.0879 -0.06835,0.15045 -0.347266,0.13897 -0.308225,-0.0127 -0.370919,-0.0754 -0.159853,-0.15986 z m 20.356381,0.005 c 0.181901,-0.0734 0.479557,-0.0734 0.661458,0 0.181901,0.0734 0.03307,0.13345 -0.330729,0.13345 -0.363802,0 -0.51263,-0.06 -0.330729,-0.13345 z m 19.380727,-0.19269 c 0,-0.0568 0.40837,-0.15102 0.90748,-0.20929 0.49912,-0.0583 0.84928,-0.0118 0.77814,0.10334 -0.12804,0.20717 -1.68562,0.30507 -1.68562,0.10595 z m 0.74414,-1.13573 c 0.191,-0.0764 0.4192,-0.067 0.50712,0.0209 0.0879,0.0879 -0.0683,0.15046 -0.34726,0.13897 -0.30823,-0.0127 -0.37092,-0.0754 -0.15986,-0.15985 z m -5.02708,-1.85208 c 0.19099,-0.0764 0.4192,-0.067 0.50712,0.0209 0.0879,0.0879 -0.0683,0.15045 -0.34727,0.13897 -0.30822,-0.0127 -0.37092,-0.0754 -0.15985,-0.15986 z m -26.489734,-2.63537 c 0.173726,-0.0707 0.282536,-0.26964 0.241801,-0.44214 -0.04073,-0.17249 -0.02412,-0.22433 0.03691,-0.11519 0.06104,0.10914 0.33918,0.19843 0.618095,0.19843 0.278915,0 0.507118,0.11907 0.507118,0.26459 0,0.14552 -0.386953,0.25518 -0.859896,0.24369 -0.472943,-0.0115 -0.717756,-0.0787 -0.54403,-0.14938 z m 5.504968,-12.00056 c 0.08994,-0.14552 0.216025,-0.26459 0.280198,-0.26459 0.06417,0 0.116677,0.11907 0.116677,0.26459 0,0.14552 -0.12609,0.26458 -0.280199,0.26458 -0.154109,0 -0.206613,-0.11906 -0.116676,-0.26458 z"
         id="path1058" />
      <path
         style="fill:#a3a3a3;fill-opacity:1;stroke-width:0.264583"
         d="m 105.3935,158.8566 c 0.19099,-0.0764 0.4192,-0.067 0.50712,0.0209 0.0879,0.0879 -0.0684,0.15045 -0.34727,0.13897 -0.30822,-0.0127 -0.37092,-0.0754 -0.15985,-0.15985 z m -2.92695,-5.81533 c 0.1819,-0.0734 0.47955,-0.0734 0.66145,0 0.18191,0.0734 0.0331,0.13346 -0.33072,0.13346 -0.36381,0 -0.51263,-0.0601 -0.33073,-0.13346 z m -6.085421,-0.26458 c 0.181902,-0.0734 0.479558,-0.0734 0.661459,0 0.181901,0.0734 0.03307,0.13345 -0.330729,0.13345 -0.363802,0 -0.512631,-0.0601 -0.33073,-0.13345 z m -14.485937,-6.80792 c 0,-0.0572 0.184777,-0.17489 0.410617,-0.26156 0.235459,-0.0904 0.341662,-0.046 0.248968,0.10399 -0.155378,0.25141 -0.659585,0.37186 -0.659585,0.15757 z m -5.157502,-0.42216 c -0.09269,-0.14998 0.01351,-0.19433 0.248968,-0.10398 0.458369,0.17589 0.542234,0.36554 0.161649,0.36554 -0.136933,0 -0.321711,-0.1177 -0.410617,-0.26156 z m 39.81792,-5.03011 c 0,-0.14552 0.12609,-0.26458 0.2802,-0.26458 0.15411,0 0.20661,0.11906 0.11667,0.26458 -0.0899,0.14552 -0.21602,0.26458 -0.2802,0.26458 -0.0642,0 -0.11667,-0.11906 -0.11667,-0.26458 z m -12.7,-1.05833 c 0,-0.14552 0.11906,-0.26459 0.26458,-0.26459 0.14552,0 0.26459,0.11907 0.26459,0.26459 0,0.14552 -0.11907,0.26458 -0.26459,0.26458 -0.14552,0 -0.26458,-0.11906 -0.26458,-0.26458 z m 1.92326,0.0812 c 0.25743,-0.0671 0.61462,-0.0627 0.79375,0.01 0.17913,0.0725 -0.0315,0.12737 -0.46805,0.12197 -0.43657,-0.005 -0.58313,-0.0647 -0.3257,-0.13177 z m -23.883678,-1.77272 c 0,-0.0572 0.184777,-0.17489 0.410617,-0.26155 0.235459,-0.0904 0.341662,-0.046 0.248968,0.10398 -0.155378,0.25141 -0.659585,0.37186 -0.659585,0.15757 z m 10.704746,-8.90945 c -0.09592,-0.1552 -0.117656,-0.33893 -0.0483,-0.40828 0.06935,-0.0694 0.196602,0.0576 0.282774,0.28218 0.178906,0.46623 0.02643,0.54823 -0.234473,0.1261 z"
         id="path1056" />
      <path
         style="fill:#8c8c8c;fill-opacity:1;stroke-width:0.264583"
         d="m 95.166134,168.56234 c 0,-0.36381 0.06006,-0.51263 0.133453,-0.33073 0.0734,0.1819 0.0734,0.47955 0,0.66145 -0.0734,0.18191 -0.133453,0.0331 -0.133453,-0.33072 z m -6.78865,-7.67292 c -0.08994,-0.14552 -0.03743,-0.26458 0.116676,-0.26458 0.154109,0 0.280199,0.11906 0.280199,0.26458 0,0.14552 -0.05251,0.26458 -0.116677,0.26458 -0.06417,0 -0.190262,-0.11906 -0.280198,-0.26458 z m -5.986874,-6.28386 c -0.329108,-0.41964 -0.31975,-0.429 0.09989,-0.0999 0.254662,0.19972 0.463021,0.40808 0.463021,0.46302 0,0.21776 -0.217272,0.0776 -0.562915,-0.36313 z m 9.244556,-0.77605 c 0.190996,-0.0764 0.419199,-0.067 0.507118,0.0209 0.08792,0.0879 -0.06835,0.15045 -0.347266,0.13896 -0.308224,-0.0127 -0.370919,-0.0754 -0.159852,-0.15985 z m 11.377084,-0.26458 c 0.19099,-0.0764 0.4192,-0.067 0.50712,0.0209 0.0879,0.0879 -0.0683,0.15046 -0.34727,0.13897 -0.30822,-0.0127 -0.37092,-0.0754 -0.15985,-0.15985 z m -10.583334,-2.91042 c 0.190996,-0.0764 0.419198,-0.067 0.507119,0.0209 0.08792,0.0879 -0.06835,0.15045 -0.347267,0.13896 -0.308224,-0.0127 -0.370919,-0.0754 -0.159852,-0.15985 z m -4.7625,-4.23333 c 0.190996,-0.0764 0.419199,-0.067 0.507118,0.0209 0.08792,0.0879 -0.06835,0.15046 -0.347266,0.13897 -0.308224,-0.0127 -0.370919,-0.0754 -0.159852,-0.15985 z m -7.9375,-0.79375 c 0.190996,-0.0764 0.419199,-0.067 0.507118,0.0209 0.08792,0.0879 -0.06835,0.15046 -0.347266,0.13897 -0.308224,-0.0127 -0.370919,-0.0754 -0.159852,-0.15985 z m 15.08125,-1.32292 c 0.190995,-0.0764 0.419198,-0.067 0.507119,0.0209 0.08792,0.0879 -0.06835,0.15045 -0.347266,0.13896 -0.308226,-0.0127 -0.370919,-0.0754 -0.159853,-0.15985 z m 13.758334,-0.26458 c 0.19099,-0.0764 0.4192,-0.067 0.50712,0.0209 0.0879,0.0879 -0.0683,0.15046 -0.34727,0.13897 -0.30822,-0.0127 -0.37092,-0.0754 -0.15985,-0.15985 z m -1.5875,-1.05833 c 0.19099,-0.0764 0.4192,-0.067 0.50712,0.0209 0.0879,0.0879 -0.0683,0.15045 -0.34727,0.13897 -0.30822,-0.0127 -0.37092,-0.0754 -0.15985,-0.15986 z m 0.73358,-0.57659 c -0.18454,-0.29858 1.60998,-0.74108 1.886,-0.46506 0.0902,0.0902 -0.12963,0.16405 -0.48858,0.16405 -0.35895,0 -0.78208,0.12944 -0.94028,0.28764 -0.1965,0.1965 -0.34134,0.20073 -0.45714,0.0134 z m 4.02892,0.0474 c 0.19099,-0.0764 0.4192,-0.067 0.50712,0.0209 0.0879,0.0879 -0.0683,0.15046 -0.34727,0.13897 -0.30822,-0.0127 -0.37092,-0.0754 -0.15985,-0.15985 z m 5.28001,-1.9805 c 0.15375,-0.15375 0.43572,-0.22748 0.6266,-0.16386 0.19816,0.0661 0.0782,0.18599 -0.27954,0.27955 -0.4401,0.11508 -0.5434,0.0807 -0.34706,-0.11569 z m -22.428318,-0.3028 c 0,-0.0455 0.386953,-0.43249 0.859896,-0.8599 l 0.859896,-0.7771 -0.777105,0.85989 c -0.724371,0.80155 -0.942687,0.98151 -0.942687,0.77711 z m 30.691668,-2.66294 c 0,-0.0549 0.20836,-0.2633 0.46302,-0.46302 0.41964,-0.32911 0.429,-0.31975 0.0999,0.0999 -0.34565,0.44073 -0.56292,0.58089 -0.56292,0.36313 z m -44.748334,-1.15688 c -0.329107,-0.41964 -0.319749,-0.429 0.09989,-0.0999 0.254661,0.19972 0.463021,0.40808 0.463021,0.46302 0,0.21776 -0.217272,0.0776 -0.562916,-0.36313 z m 9.294166,-14.72221 c 0,-0.0572 0.178594,-0.17252 0.396875,-0.25628 0.218281,-0.0838 0.396875,-0.037 0.396875,0.10398 0,0.14096 -0.178594,0.25628 -0.396875,0.25628 -0.218281,0 -0.396875,-0.0468 -0.396875,-0.10398 z m 21.828128,-1.21893 c 0.0899,-0.14552 0.21602,-0.26459 0.2802,-0.26459 0.0642,0 0.11667,0.11907 0.11667,0.26459 0,0.14552 -0.12609,0.26458 -0.2802,0.26458 -0.15411,0 -0.20661,-0.11906 -0.11667,-0.26458 z m -16.271878,-1.95198 c 0,-0.0549 0.208359,-0.2633 0.463021,-0.46302 0.419645,-0.32911 0.429003,-0.31975 0.0999,0.0999 -0.345644,0.44073 -0.562917,0.58089 -0.562917,0.36313 z"
         id="path1054" />
      <path
         style="fill:#767676;fill-opacity:1;stroke-width:0.264583"
         d="m 104.75651,169.55452 -0.50403,-0.59531 0.59532,0.50403 c 0.55944,0.47366 0.71576,0.6866 0.50402,0.6866 -0.0502,0 -0.31809,-0.26789 -0.59531,-0.59532 z M 92.549707,153.8269 c 0.257431,-0.0671 0.614618,-0.0627 0.793749,0.01 0.179131,0.0725 -0.03149,0.12737 -0.468056,0.12197 -0.436562,-0.005 -0.583124,-0.0647 -0.325693,-0.13177 z m -3.047744,-3.69604 c 0.181901,-0.0734 0.479557,-0.0734 0.661458,0 0.181901,0.0734 0.03307,0.13345 -0.330729,0.13345 -0.363802,0 -0.51263,-0.0601 -0.330729,-0.13345 z m -11.377084,-3.70417 c 0.181901,-0.0734 0.479558,-0.0734 0.661459,0 0.181901,0.0734 0.03307,0.13345 -0.33073,0.13345 -0.363802,0 -0.51263,-0.06 -0.330729,-0.13345 z m 2.315104,-0.0894 c 0.08994,-0.14552 0.216026,-0.26458 0.280199,-0.26458 0.06417,0 0.116676,0.11906 0.116676,0.26458 0,0.14553 -0.126089,0.26459 -0.280198,0.26459 -0.154109,0 -0.206613,-0.11906 -0.116677,-0.26459 z m 8.135938,0.0822 c 0.254662,-0.0665 0.67138,-0.0665 0.926042,0 0.254661,0.0665 0.0463,0.12101 -0.463021,0.12101 -0.509323,0 -0.717682,-0.0545 -0.463021,-0.12101 z m -13.344922,-0.7921 c 0.190996,-0.0764 0.419199,-0.067 0.507118,0.0209 0.08792,0.0879 -0.06835,0.15046 -0.347265,0.13897 -0.308225,-0.0127 -0.37092,-0.0754 -0.159853,-0.15985 z m 3.704167,0 c 0.190996,-0.0764 0.419199,-0.067 0.507118,0.0209 0.08792,0.0879 -0.06835,0.15046 -0.347266,0.13897 -0.308224,-0.0127 -0.370919,-0.0754 -0.159852,-0.15985 z m 0.79375,-0.52917 c 0.190996,-0.0764 0.419199,-0.067 0.507118,0.0209 0.08792,0.0879 -0.06835,0.15045 -0.347266,0.13896 -0.308224,-0.0127 -0.370919,-0.0754 -0.159852,-0.15985 z m 14.552083,0 c 0.190995,-0.0764 0.419198,-0.067 0.507119,0.0209 0.08792,0.0879 -0.06835,0.15045 -0.347265,0.13896 -0.308227,-0.0127 -0.37092,-0.0754 -0.159854,-0.15985 z m -19.066536,-0.52365 c 0.181901,-0.0734 0.479557,-0.0734 0.661458,0 0.181901,0.0734 0.03307,0.13345 -0.330729,0.13345 -0.363802,0 -0.51263,-0.0601 -0.330729,-0.13345 z m 21.199062,-1.08155 c -0.329107,-0.41964 -0.319749,-0.429 0.0999,-0.0999 0.254662,0.19972 0.463021,0.40808 0.463021,0.46302 0,0.21776 -0.217273,0.0776 -0.562917,-0.36313 z m 20.869685,0.2878 c 0.1819,-0.0734 0.47956,-0.0734 0.66146,0 0.1819,0.0734 0.0331,0.13345 -0.33073,0.13345 -0.3638,0 -0.51263,-0.0601 -0.33073,-0.13345 z m 3.10886,-0.35394 c 0.0899,-0.14552 0.27556,-0.26459 0.41249,-0.26459 0.13693,0 0.24897,0.11907 0.24897,0.26459 0,0.14552 -0.18563,0.26458 -0.4125,0.26458 -0.22686,0 -0.3389,-0.11906 -0.24896,-0.26458 z m -1.64861,-0.44794 c 0.25743,-0.0671 0.61462,-0.0627 0.79375,0.01 0.17913,0.0725 -0.0315,0.12736 -0.46806,0.12197 -0.43656,-0.005 -0.58313,-0.0647 -0.32569,-0.13178 z m -10.60391,-0.3698 c 0.15123,-0.45918 1.96708,-0.62993 2.86927,-0.26981 0.55817,0.22281 0.45522,0.26267 -0.71543,0.27703 -0.75208,0.009 -1.572,0.0953 -1.82204,0.19122 -0.31905,0.12243 -0.41799,0.0633 -0.3318,-0.19844 z m -0.3648,-0.9505 c 0.19099,-0.0764 0.4192,-0.067 0.50712,0.0209 0.0879,0.0879 -0.0683,0.15046 -0.34727,0.13897 -0.30822,-0.0127 -0.37092,-0.0754 -0.15985,-0.15985 z m 10.4345,-0.002 c 0.25467,-0.0666 0.67138,-0.0666 0.92605,0 0.25466,0.0665 0.0463,0.121 -0.46302,0.121 -0.50933,0 -0.71769,-0.0545 -0.46303,-0.121 z m -29.351621,-3.58798 c -0.01614,-0.32743 0.02823,-0.44575 0.09859,-0.26294 0.07036,0.18281 0.266582,0.24925 0.436054,0.14765 0.169472,-0.1016 0.144725,0.0167 -0.055,0.26293 -0.455558,0.56162 -0.444523,0.56502 -0.479645,-0.14764 z m -7.805797,-0.37918 c 0.190997,-0.0764 0.4192,-0.067 0.507119,0.0209 0.08792,0.0879 -0.06835,0.15046 -0.347266,0.13897 -0.308225,-0.0127 -0.370919,-0.0754 -0.159853,-0.15985 z m 0.04961,-0.62863 c 0,-0.15411 0.119062,-0.20661 0.264583,-0.11667 0.145521,0.0899 0.264583,0.21602 0.264583,0.2802 0,0.0642 -0.119062,0.11667 -0.264583,0.11667 -0.145521,0 -0.264583,-0.12609 -0.264583,-0.2802 z m -4.894792,-0.24897 c 0.08994,-0.14552 0.216026,-0.26458 0.280198,-0.26458 0.06417,0 0.116677,0.11906 0.116677,0.26458 0,0.14553 -0.126089,0.26459 -0.280198,0.26459 -0.154109,0 -0.206614,-0.11906 -0.116677,-0.26459 z m 19.942292,-2.3151 c -0.329108,-0.41964 -0.319749,-0.429 0.0999,-0.0999 0.254661,0.19973 0.463021,0.40808 0.463021,0.46303 0,0.21776 -0.217274,0.0776 -0.562917,-0.36313 z M 82.70983,130.83716 c 0.0127,-0.30822 0.07539,-0.37092 0.159852,-0.15985 0.07643,0.19099 0.06703,0.4192 -0.02089,0.50712 -0.08792,0.0879 -0.150453,-0.0684 -0.138965,-0.34727 z m 9.525,-2.91042 c 0.01269,-0.30822 0.07539,-0.37091 0.159853,-0.15985 0.07643,0.191 0.06703,0.4192 -0.02089,0.50712 -0.08792,0.0879 -0.150453,-0.0684 -0.138965,-0.34727 z m 11.75494,-1.95929 c -0.0927,-0.14998 0.0135,-0.19434 0.24897,-0.10399 0.45837,0.1759 0.54224,0.36554 0.16165,0.36554 -0.13693,0 -0.32171,-0.1177 -0.41062,-0.26155 z m 14.55021,-0.79678 c 0.26339,-0.29104 0.53843,-0.52917 0.61119,-0.52917 0.0728,0 -0.0832,0.23813 -0.3466,0.52917 -0.26339,0.29104 -0.53842,0.52916 -0.61118,0.52916 -0.0728,0 0.0832,-0.23812 0.34659,-0.52916 z M 88.774359,120.7607 c 0.218281,-0.092 0.495236,-0.29827 0.615455,-0.45835 0.140587,-0.1872 0.179968,-0.14945 0.110367,0.10582 -0.05952,0.21828 -0.336473,0.42454 -0.615456,0.45835 -0.356405,0.0432 -0.389224,0.0117 -0.110366,-0.10582 z m 8.417057,-3.44369 c 0.190995,-0.0764 0.419198,-0.067 0.507119,0.0209 0.08792,0.0879 -0.06835,0.15045 -0.347266,0.13896 -0.308226,-0.0127 -0.370919,-0.0754 -0.159853,-0.15985 z m -20.372917,-1.85208 c 0.190996,-0.0764 0.419199,-0.067 0.507118,0.0209 0.08792,0.0879 -0.06835,0.15045 -0.347265,0.13896 -0.308225,-0.0127 -0.37092,-0.0754 -0.159853,-0.15985 z"
         id="path1052" />
      <path
         style="fill:#606060;fill-opacity:1;stroke-width:0.264583"
         d="m 99.907748,168.14341 c 0.0127,-0.30822 0.07539,-0.37092 0.159852,-0.15985 0.0764,0.19099 0.067,0.4192 -0.0209,0.50712 -0.08792,0.0879 -0.15045,-0.0684 -0.138962,-0.34727 z m 6.824532,-0.57326 c -0.32911,-0.41965 -0.31975,-0.42901 0.0999,-0.0999 0.25466,0.19972 0.46302,0.40808 0.46302,0.46302 0,0.21777 -0.21727,0.0776 -0.56291,-0.36312 z m -16.08495,-7.36424 c 0.0127,-0.30822 0.07539,-0.37092 0.159853,-0.15985 0.07643,0.19099 0.06703,0.4192 -0.02089,0.50712 -0.08792,0.0879 -0.150453,-0.0684 -0.138965,-0.34727 z m 9.50411,-6.15897 c 0,-0.12534 0.29766,-0.17099 0.66146,-0.10144 0.3638,0.0695 0.66146,0.17209 0.66146,0.22789 0,0.0558 -0.29766,0.10145 -0.66146,0.10145 -0.3638,0 -0.66146,-0.10256 -0.66146,-0.2279 z m -5.953123,-1.09502 c 0.08994,-0.14552 0.216027,-0.26458 0.280199,-0.26458 0.06417,0 0.116676,0.11906 0.116676,0.26458 0,0.14552 -0.12609,0.26458 -0.280199,0.26458 -0.154109,0 -0.206613,-0.11906 -0.116676,-0.26458 z m 7.491013,-0.44532 c 0.191,-0.0764 0.4192,-0.067 0.50712,0.0209 0.0879,0.0879 -0.0683,0.15045 -0.34726,0.13897 -0.30823,-0.0127 -0.37092,-0.0754 -0.15986,-0.15985 z m 0.97753,-0.0808 c -0.0927,-0.14998 0.0135,-0.19434 0.24896,-0.10398 0.45837,0.17589 0.54224,0.36554 0.16165,0.36554 -0.13693,0 -0.32171,-0.1177 -0.41061,-0.26156 z m -11.825444,-3.0942 c 0.190996,-0.0764 0.419199,-0.067 0.507118,0.0209 0.08792,0.0879 -0.06835,0.15045 -0.347266,0.13897 -0.308224,-0.0127 -0.370919,-0.0754 -0.159852,-0.15985 z m -11.658203,-2.37574 c 0.181901,-0.0734 0.479557,-0.0734 0.661458,0 0.181901,0.0734 0.03307,0.13345 -0.330729,0.13345 -0.363802,0 -0.51263,-0.0601 -0.330729,-0.13345 z m 1.852083,-0.0115 c 0.327422,-0.0631 0.863203,-0.0631 1.190625,0 0.327422,0.0631 0.05953,0.11467 -0.595313,0.11467 -0.654843,0 -0.922734,-0.0516 -0.595312,-0.11467 z m 6.63112,-0.25859 c 0.190996,-0.0764 0.419199,-0.067 0.507118,0.0209 0.08792,0.0879 -0.06835,0.15045 -0.347266,0.13897 -0.308224,-0.0127 -0.370919,-0.0754 -0.159852,-0.15986 z M 73.908082,146.1566 c 0.190996,-0.0764 0.4192,-0.067 0.507119,0.0209 0.08792,0.0879 -0.06835,0.15046 -0.347266,0.13897 -0.308225,-0.0127 -0.370919,-0.0754 -0.159853,-0.15985 z m 54.066388,-0.61303 c 0,-0.3638 0.06,-0.51263 0.13345,-0.33072 0.0734,0.1819 0.0734,0.47955 0,0.66145 -0.0734,0.18191 -0.13345,0.0331 -0.13345,-0.33073 z m -10.9393,-0.97448 c 0.19099,-0.0764 0.41919,-0.067 0.50712,0.0209 0.0879,0.0879 -0.0684,0.15045 -0.34727,0.13897 -0.30823,-0.0127 -0.37092,-0.0754 -0.15985,-0.15986 z m -4.77904,-0.52366 c 0.1819,-0.0734 0.47956,-0.0734 0.66146,0 0.1819,0.0734 0.0331,0.13345 -0.33073,0.13345 -0.3638,0 -0.51263,-0.06 -0.33073,-0.13345 z m -18.983855,-1.1633 c 0,-0.15411 0.119063,-0.20662 0.264584,-0.11668 0.14552,0.0899 0.264583,0.21603 0.264583,0.2802 0,0.0642 -0.119063,0.11667 -0.264583,0.11667 -0.145521,0 -0.264584,-0.12608 -0.264584,-0.28019 z m 19.000395,0.0995 c 0.19099,-0.0764 0.41919,-0.067 0.50712,0.0209 0.0879,0.0879 -0.0684,0.15045 -0.34727,0.13897 -0.30823,-0.0127 -0.37092,-0.0754 -0.15985,-0.15986 z m -5.04362,-0.25908 c 0.1819,-0.0734 0.47955,-0.0734 0.66145,0 0.18191,0.0734 0.0331,0.13346 -0.33072,0.13346 -0.36381,0 -0.51263,-0.0601 -0.33073,-0.13346 z m 6.74687,-0.007 c 0.25466,-0.0665 0.67138,-0.0665 0.92604,0 0.25466,0.0666 0.0463,0.121 -0.46302,0.121 -0.50932,0 -0.71768,-0.0545 -0.46302,-0.121 z m -2.91042,-0.52916 c 0.25467,-0.0666 0.67138,-0.0666 0.92605,0 0.25466,0.0665 0.0463,0.121 -0.46302,0.121 -0.50933,0 -0.71769,-0.0545 -0.46303,-0.121 z m 8.1084,-0.39833 c 0.77632,-0.17317 1.34822,-0.1697 1.7198,0.0104 0.4375,0.21209 0.18845,0.26765 -1.16309,0.25945 l -1.71979,-0.0104 z m -12.55497,-0.27353 c 0.30172,-0.16885 0.55276,-0.16885 0.72161,0 0.16884,0.16885 0.008,0.25893 -0.46268,0.25893 -0.60937,0 -0.64964,-0.0403 -0.25893,-0.25893 z m 3.80165,-0.38483 c 0.191,-0.0764 0.4192,-0.067 0.50712,0.0209 0.0879,0.0879 -0.0683,0.15046 -0.34726,0.13897 -0.30823,-0.0127 -0.37092,-0.0754 -0.15986,-0.15985 z m -9.59067,-7.04057 c 0.0994,-0.26094 0.2473,-0.40778 0.32877,-0.32632 0.0815,0.0815 1.7e-4,0.29496 -0.18066,0.47443 -0.2613,0.25936 -0.29169,0.22897 -0.14811,-0.14811 z m -18.999215,-1.15655 c 0.182807,-0.0737 0.253708,-0.26129 0.157557,-0.41687 -0.104199,-0.1686 -0.04968,-0.20552 0.134959,-0.0914 0.364255,0.22512 0.145537,0.69335 -0.30978,0.66317 -0.225542,-0.0149 -0.220634,-0.059 0.01726,-0.15489 z m 0.227577,-1.37871 c 0.106431,-0.42281 0.06234,-0.56921 -0.134734,-0.44741 -0.161111,0.0996 -0.29293,0.0422 -0.29293,-0.12745 0,-0.16968 0.170902,-0.24293 0.379781,-0.16277 0.20888,0.0802 0.427161,0.004 0.48507,-0.17013 0.05791,-0.17373 0.105288,0.0758 0.105288,0.55444 0,0.47867 -0.08481,0.73309 -0.188458,0.56537 -0.136231,-0.22042 -0.233318,-0.20498 -0.350335,0.0557 -0.08903,0.19837 -0.09069,0.0779 -0.0037,-0.26778 z m 5.39317,-4.53092 c -0.238467,-0.15411 -0.271101,-0.2581 -0.08176,-0.26053 0.173313,-0.002 0.388699,0.11501 0.478636,0.26053 0.203016,0.32849 0.111422,0.32849 -0.396876,0 z m 14.253748,-13.95677 c -0.32911,-0.41964 -0.31975,-0.429 0.0999,-0.0999 0.44073,0.34565 0.58089,0.56292 0.36312,0.56292 -0.0549,0 -0.2633,-0.20836 -0.46302,-0.46302 z m 7.12789,-3.95105 c 0.191,-0.0764 0.4192,-0.067 0.50712,0.0209 0.0879,0.0879 -0.0683,0.15045 -0.34726,0.13896 -0.30823,-0.0127 -0.37092,-0.0754 -0.15986,-0.15985 z"
         id="path1050" />
      <path
         style="fill:#494949;fill-opacity:1;stroke-width:0.264583"
         d="m 87.757802,167.504 c 0,-0.3638 0.06005,-0.51263 0.133452,-0.33073 0.0734,0.1819 0.0734,0.47956 0,0.66146 -0.0734,0.1819 -0.133452,0.0331 -0.133452,-0.33073 z m 18.209168,-0.66785 c -0.18408,-0.2218 -0.28344,-0.45451 -0.22082,-0.51713 0.0626,-0.0626 0.2592,0.11884 0.43682,0.40327 0.38413,0.61508 0.25602,0.68261 -0.216,0.11386 z m -0.55761,-13.28892 c -0.32911,-0.41964 -0.31975,-0.429 0.0999,-0.0999 0.25467,0.19972 0.46303,0.40808 0.46303,0.46302 0,0.21776 -0.21728,0.0776 -0.56292,-0.36313 z m -1.88448,-1.03512 c 0.1819,-0.0734 0.47956,-0.0734 0.66146,0 0.1819,0.0734 0.0331,0.13345 -0.33073,0.13345 -0.3638,0 -0.51263,-0.06 -0.33073,-0.13345 z m -2.71198,-5.38102 c -0.0899,-0.14553 -0.0374,-0.26459 0.11668,-0.26459 0.15411,0 0.2802,0.11906 0.2802,0.26459 0,0.14552 -0.0525,0.26458 -0.11668,0.26458 -0.0642,0 -0.19026,-0.11906 -0.2802,-0.26458 z m -14.155208,-0.52917 c -0.218281,-0.14107 -0.277813,-0.25648 -0.132292,-0.25648 0.145521,0 0.443177,0.11541 0.661459,0.25648 0.218281,0.14106 0.277812,0.25648 0.132291,0.25648 -0.145521,0 -0.443177,-0.11542 -0.661458,-0.25648 z m -13.229167,-1.95607 c 0,-0.0572 0.184778,-0.17489 0.410617,-0.26155 0.235459,-0.0904 0.341662,-0.046 0.248968,0.10398 -0.155378,0.25141 -0.659585,0.37186 -0.659585,0.15757 z m 46.654865,-1.33958 c 0,-0.21189 0.10116,-0.32272 0.2248,-0.24631 0.12364,0.0764 0.1563,0.24977 0.0726,0.38524 -0.21395,0.34618 -0.29738,0.3072 -0.29738,-0.13893 z m -7.54614,-0.0601 c 0.19099,-0.0764 0.4192,-0.067 0.50712,0.0209 0.0879,0.0879 -0.0683,0.15046 -0.34727,0.13897 -0.30822,-0.0127 -0.37092,-0.0754 -0.15985,-0.15985 z m -6.69727,-0.36645 c -0.43091,-0.17049 -0.36951,-0.21282 0.33073,-0.22796 0.89423,-0.0194 1.09674,0.10058 0.52917,0.31335 -0.1819,0.0682 -0.56885,0.0298 -0.8599,-0.0854 z m 8.86355,0.17862 c 0,-0.0572 0.17859,-0.17252 0.39687,-0.25628 0.21828,-0.0838 0.39688,-0.037 0.39688,0.10398 0,0.14096 -0.1786,0.25628 -0.39688,0.25628 -0.21828,0 -0.39687,-0.0468 -0.39687,-0.10398 z m 7.77994,-0.64888 c 0.12169,-0.19691 -0.0283,-0.30691 -0.42214,-0.30952 -0.33601,-0.002 -0.78952,-0.12113 -1.0078,-0.26421 -0.27973,-0.18337 -0.12353,-0.2109 0.52916,-0.0933 1.09986,0.19824 1.49359,0.48939 1.04051,0.76941 -0.21177,0.13088 -0.26143,0.0945 -0.13973,-0.10242 z M 112.653,142.1862 c 0.25467,-0.0666 0.67138,-0.0666 0.92605,0 0.25466,0.0665 0.0463,0.121 -0.46302,0.121 -0.50933,0 -0.71769,-0.0545 -0.46303,-0.121 z m -4.0845,-0.52752 c 0.19099,-0.0764 0.4192,-0.067 0.50712,0.0209 0.0879,0.0879 -0.0683,0.15046 -0.34727,0.13897 -0.30822,-0.0127 -0.37092,-0.0754 -0.15985,-0.15985 z m -3.71762,-0.53556 c 0.32912,-0.0633 0.80537,-0.0609 1.05833,0.005 0.25297,0.0662 -0.0163,0.118 -0.59839,0.11506 -0.58209,-0.003 -0.78906,-0.0571 -0.45994,-0.1204 z m 3.96875,0 c 0.32912,-0.0633 0.80537,-0.0609 1.05833,0.005 0.25297,0.0662 -0.0163,0.118 -0.59839,0.11506 -0.58209,-0.003 -0.78906,-0.0571 -0.45994,-0.1204 z m 11.75631,-5.23683 c 0.005,-0.43656 0.0647,-0.58312 0.13177,-0.32569 0.0671,0.25743 0.0627,0.61462 -0.01,0.79375 -0.0725,0.17913 -0.12737,-0.0315 -0.12197,-0.46806 z m -39.60679,-1.98437 c 0.05621,-0.61404 0.177315,-1.19155 0.269132,-1.28337 0.09182,-0.0918 0.116229,0.34018 0.05425,0.95999 -0.06198,0.61981 -0.183091,1.19733 -0.269132,1.28337 -0.08604,0.086 -0.110453,-0.34596 -0.05425,-0.95999 z m 0.573264,-1.76389 c -0.246627,-0.24663 -0.220146,-0.61736 0.0441,-0.61736 0.121268,0 0.220486,0.17859 0.220486,0.39687 0,0.44962 -0.01933,0.46574 -0.264583,0.22049 z m 38.209086,-1.56545 c 0.0127,-0.30823 0.0754,-0.37092 0.15985,-0.15985 0.0764,0.19099 0.067,0.41919 -0.0209,0.50711 -0.0879,0.0879 -0.15045,-0.0683 -0.13896,-0.34726 z m -27.537558,-1.43316 c 0,-0.14552 0.126089,-0.26459 0.280198,-0.26459 0.154109,0 0.206614,0.11907 0.116677,0.26459 -0.08994,0.14552 -0.216026,0.26458 -0.280198,0.26458 -0.06417,0 -0.116677,-0.11906 -0.116677,-0.26458 z m -11.90625,-0.89365 c 0,-0.0549 0.208359,-0.2633 0.463021,-0.46302 0.419644,-0.32911 0.429002,-0.31975 0.09989,0.0999 -0.345643,0.44073 -0.562915,0.58088 -0.562915,0.36312 z m 6.879167,-7.04385 c 0,-0.14552 0.126089,-0.26459 0.280198,-0.26459 0.154109,0 0.206613,0.11907 0.116677,0.26459 -0.08994,0.14552 -0.216026,0.26458 -0.280199,0.26458 -0.06417,0 -0.116676,-0.11906 -0.116676,-0.26458 z m -0.84336,-7.32449 c 0.190996,-0.0764 0.419199,-0.067 0.507118,0.0209 0.08792,0.0879 -0.06835,0.15045 -0.347265,0.13896 -0.308225,-0.0127 -0.37092,-0.0754 -0.159853,-0.15985 z"
         id="path1048" />
      <path
         style="fill:#333333;fill-opacity:1;stroke-width:0.264583"
         d="m 95.672581,169.96469 c -0.168463,-0.70223 -0.271431,-2.1428 -0.22882,-3.20126 0.05699,-1.41567 -0.01892,-1.98406 -0.287155,-2.14987 -0.418251,-0.25854 -0.175792,-0.81372 0.35537,-0.81372 0.196014,0 0.546177,-0.55699 0.778137,-1.23776 0.528415,-1.55082 0.53599,-1.49412 -0.175766,-1.31548 -0.726014,0.18222 -1.041759,-0.0165 -1.428287,-0.89886 -0.189039,-0.43155 -0.649123,-0.78258 -1.279088,-0.97593 -0.910268,-0.27936 -1.031259,-0.2508 -1.61761,0.38188 -0.348564,0.37611 -0.645941,0.81528 -0.660836,0.97593 -0.0149,0.16065 -0.125107,-0.12463 -0.244913,-0.63395 -0.164403,-0.69891 -0.125314,-0.97794 0.159375,-1.13763 0.531015,-0.29786 0.46882,-0.81411 -0.16745,-1.38993 -0.413548,-0.37425 -0.652382,-0.4263 -0.992188,-0.21619 -0.658275,0.407 -2.009669,2.8306 -2.271525,4.07376 -0.07745,0.36771 -0.58074,1.1825 -1.118417,1.81065 -0.782176,0.9138 -0.903132,1.18924 -0.605092,1.37792 0.589521,0.3732 1.040882,0.29014 2.239052,-0.41203 l 1.119293,-0.65595 -0.728863,1.38355 c -0.503458,0.95569 -0.715298,1.72872 -0.684999,2.49967 0.0596,1.51659 -0.426825,1.62093 -1.759852,0.3775 l -1.086779,-1.01374 0.244346,-2.39496 c 0.248016,-2.43093 0.05934,-3.57523 -0.663105,-4.02173 -0.251501,-0.15544 -0.218935,-0.59666 0.144787,-1.96166 l 0.46927,-1.76111 -0.880948,-0.72646 c -0.484522,-0.39955 -1.52285,-1.292 -2.307397,-1.98322 -0.784546,-0.69123 -1.582572,-1.25677 -1.773389,-1.25677 -0.190818,0 -0.923875,0.19658 -1.629016,0.43684 l -1.282075,0.43685 -0.902704,-1.03216 c -0.496488,-0.56769 -1.437676,-1.60148 -2.09153,-2.29732 -1.024769,-1.09057 -1.16513,-1.37305 -1.017111,-2.04697 0.187133,-0.85201 0.248593,-0.80622 -2.276821,-1.69641 -1.265387,-0.44604 -1.825283,-1.17934 -1.825283,-2.3906 0,-1.03219 0.281964,-1.46456 1.207177,-1.85114 0.483127,-0.20186 1.153296,-0.79127 1.489264,-1.30979 0.714696,-1.10303 0.906737,-1.16188 1.155017,-0.35399 0.100622,0.32742 0.376536,0.79795 0.613142,1.04563 1.147674,1.20137 1.147636,1.20151 -0.394794,1.39422 -1.747368,0.21832 -1.790122,0.72811 -0.08051,0.95999 l 1.170079,0.1587 -1.455209,0.0842 c -1.247152,0.0722 -1.311561,0.0992 -0.450497,0.18875 0.829382,0.0863 0.978064,0.18849 0.852011,0.58564 -0.09918,0.3125 0.0097,0.54345 0.310791,0.65898 0.398083,0.15276 0.40853,0.21536 0.07403,0.44364 -0.270512,0.1846 0.03717,0.21275 1.007426,0.0922 0.925196,-0.115 1.524345,-0.0678 1.774348,0.13964 0.207604,0.17229 0.503256,0.23552 0.657004,0.1405 0.153749,-0.095 0.653507,0.0138 1.110574,0.2418 0.571577,0.28514 1.458526,0.39866 2.840901,0.3636 l 2.009871,-0.051 -1.719792,-0.0953 c -0.945885,-0.0524 -1.838854,-0.21785 -1.984375,-0.36766 -0.181051,-0.18638 0.13716,-0.21351 1.007914,-0.0859 1.72141,0.25224 9.167188,0.27251 9.892647,0.0269 0.339003,-0.11475 0.52464,-0.34593 0.444818,-0.55394 -0.09438,-0.24596 0.177292,-0.41139 0.873397,-0.53186 0.555715,-0.0962 1.308047,-0.34193 1.671849,-0.54613 l 0.661459,-0.37126 -0.74322,-0.009 c -1.475273,-0.0186 -0.417706,-0.46957 1.407472,-0.60016 2.753024,-0.19698 2.974906,-0.72755 0.393774,-0.94159 -0.800195,-0.0664 -1.454901,-0.20354 -1.454901,-0.30483 0,-0.10129 0.357187,-0.58424 0.79375,-1.07323 0.436562,-0.48898 0.79375,-1.08498 0.79375,-1.32444 0,-0.23947 0.297656,-0.71503 0.661458,-1.05681 0.363802,-0.34177 0.661458,-0.77924 0.661458,-0.97216 0,-0.19291 0.241962,-0.35075 0.537692,-0.35075 0.295733,0 0.623154,-0.2204 0.727604,-0.48978 0.104452,-0.26937 0.904288,-1.11117 1.777413,-1.87066 0.873126,-0.75949 1.627186,-1.49159 1.675696,-1.62689 0.17801,-0.49653 -0.67838,-0.22293 -2.084832,0.66606 -1.261983,0.79768 -1.508485,0.86884 -1.965518,0.56742 -1.057151,-0.69721 -2.032093,-2.20399 -2.178241,-3.36648 -0.07991,-0.63564 -0.396105,-1.4313 -0.702648,-1.76812 l -0.557353,-0.6124 0.763026,0.2901 c 1.14916,0.43691 0.43936,-0.31194 -0.844362,-0.89082 -0.978269,-0.44114 -1.010177,-0.5004 -1.320874,-2.45316 -0.344002,-2.16207 -0.287504,-2.46819 0.455538,-2.46819 0.266886,0 0.551382,-0.17235 0.632217,-0.38301 0.08084,-0.21065 0.63092,-0.51332 1.222407,-0.67259 0.591489,-0.15927 1.502719,-0.66474 2.024957,-1.12328 0.522237,-0.45853 1.168588,-0.84983 1.436333,-0.86955 0.267745,-0.0197 0.972777,-0.35746 1.566738,-0.75053 0.593962,-0.39306 1.428242,-0.78433 1.853962,-0.86947 0.42572,-0.0851 0.97716,-0.37926 1.22544,-0.6536 0.24827,-0.27434 0.64458,-0.4988 0.88069,-0.4988 0.23611,0 0.66414,-0.16338 0.95118,-0.36307 0.28704,-0.19969 0.93861,-0.44994 1.44794,-0.55612 1.22247,-0.25485 3.99189,-1.63 4.51778,-2.24329 0.2937,-0.34251 0.63756,-0.44379 1.16466,-0.34303 0.41489,0.0793 1.11293,-0.0326 1.56764,-0.25126 1.06061,-0.5101 2.53029,-1.02072 3.20096,-1.11213 0.29104,-0.0397 0.98026,-0.22131 1.53159,-0.40364 0.79492,-0.26288 1.08379,-0.26399 1.39546,-0.005 0.21616,0.1794 0.46533,0.25387 0.55371,0.16549 0.21982,-0.21981 1.14945,0.30228 1.14945,0.64556 0,0.15239 0.35718,1.09089 0.79375,2.08556 0.43656,0.99467 0.79375,1.87782 0.79375,1.96257 0,0.0847 -0.29766,0.15409 -0.66146,0.15409 -1.06116,0 -0.76973,0.38692 0.77305,1.02637 1.41839,0.58789 1.44057,0.61449 1.97241,2.36544 0.31736,1.04486 1.08801,2.56944 1.87973,3.71871 l 1.34184,1.94784 -0.38613,2.41614 c -0.21237,1.32887 -0.45811,3.07097 -0.54608,3.87134 -0.22552,2.05184 -0.62863,3.17361 -1.5008,4.17639 -0.42998,0.49438 -0.75682,1.17885 -0.75804,1.5875 -0.003,1.13492 1.61288,4.81944 2.1141,4.81944 0.68954,0 1.06304,0.56533 1.06304,1.60901 0,0.81529 -0.16168,1.09671 -0.99219,1.72693 -2.23641,1.69707 -3.22563,2.79406 -3.39878,3.76905 -0.0942,0.53064 -0.37956,1.32199 -0.63406,1.75855 -0.25449,0.43657 -0.53257,1.255 -0.61795,1.81876 -0.0854,0.56375 -0.35758,1.2486 -0.6049,1.52188 -0.4384,0.48442 -0.45692,0.48235 -0.73891,-0.0823 -0.15909,-0.31857 -0.64644,-0.6775 -1.083,-0.79761 -1.76568,-0.48582 -2.63546,-1.80294 -2.38641,-3.61377 0.18711,-1.36049 -0.15816,-2.61035 -0.78787,-2.85199 -0.50961,-0.19556 -2.51702,0.0986 -3.04343,0.44596 -0.34985,0.23086 -0.34632,0.30078 0.0298,0.59017 0.23466,0.18055 0.48441,0.74383 0.55499,1.25174 0.0706,0.5079 0.21876,1.13182 0.32926,1.38648 0.14715,0.33911 0.0795,0.46303 -0.25295,0.46303 -0.352,0 -0.4166,0.14845 -0.28785,0.66145 0.0942,0.37526 0.0515,0.66146 -0.0986,0.66146 -0.14552,0 -0.34239,0.32742 -0.43748,0.72761 -0.0951,0.40018 -0.46837,1.34144 -0.8295,2.09169 -0.70932,1.47362 -1.74148,2.0213 -2.31953,1.23078 -0.1592,-0.21772 -0.68676,-1.93244 -1.17235,-3.81047 -0.48559,-1.87804 -0.98793,-3.41461 -1.11632,-3.41461 -0.30932,0 -0.74949,1.18796 -0.74949,2.02278 0,0.36598 0.34044,1.63815 0.75653,2.82705 0.44164,1.26191 0.72306,2.55612 0.67612,3.10943 -0.067,0.79042 0.0704,1.09008 0.82807,1.80469 1.06525,1.00477 1.97262,0.94369 1.97262,-0.13279 0,-0.58578 0.63012,-1.15173 0.93872,-0.84313 0.24553,0.24553 -0.43424,3.02177 -1.05504,4.30885 -0.35094,0.7276 -0.81786,2.02146 -1.0376,2.87523 -0.50727,1.97098 -2.02108,3.71499 -2.02108,2.32842 0,-0.26668 -0.47298,-0.86498 -1.05107,-1.32954 -1.19463,-0.96003 -2.5247,-3.04284 -2.23868,-3.50563 0.10999,-0.17796 -0.0775,-0.51513 -0.44251,-0.79578 l -0.63337,-0.48698 0.8599,-0.006 c 1.03061,-0.007 1.0789,-0.33068 0.20442,-1.36994 -0.54051,-0.64236 -0.60162,-0.86519 -0.34846,-1.27057 0.16885,-0.27038 0.65138,-0.59187 1.07228,-0.71442 0.42089,-0.12256 0.78606,-0.34189 0.81148,-0.48741 0.0959,-0.5491 -1.77967,-0.41187 -3.63892,0.26623 -1.90703,0.69554 -1.92242,0.70893 -2.37656,2.069 -0.2514,0.75291 -0.51521,1.50839 -0.586246,1.67884 -0.08388,0.20128 0.06164,0.26002 0.415126,0.16758 0.62544,-0.16356 0.75402,0.4536 0.21354,1.02497 -0.697976,0.73786 -1.287394,2.37517 -0.98584,2.73852 0.367207,0.44246 0.04693,3.54913 -0.37125,3.60106 -0.163102,0.0202 -0.772803,0.0557 -1.354886,0.0789 -0.582084,0.0231 -1.253019,0.13311 -1.49097,0.24441 -0.35161,0.16446 -0.490005,-0.0368 -0.738933,-1.07442 z m -1.606556,-15.66155 c 0,-0.6398 -2.530277,-0.7685 -3.322867,-0.16901 -0.467033,0.35325 -0.339701,0.38922 1.404638,0.39687 1.055026,0.005 1.918229,-0.0979 1.918229,-0.22786 z m 8.180035,-0.12475 c -0.0606,-0.0531 -0.76509,-0.17491 -1.56545,-0.2708 -1.014263,-0.12151 -1.334951,-0.0935 -1.058335,0.0924 0.356159,0.23938 2.890445,0.41169 2.623785,0.1784 z m -3.860712,-0.57163 c 0.02545,-0.14188 -0.489479,-0.28535 -1.144323,-0.31883 l -1.190625,-0.0609 0.926042,0.35827 c 1.029811,0.39843 1.340392,0.40315 1.408906,0.0214 z m 7.454632,-0.12567 c -0.40952,-0.14366 -0.42915,-0.21477 -0.11472,-0.41567 0.28336,-0.18107 0.14508,-0.28419 -0.54673,-0.40769 l -0.92605,-0.16532 1.00781,-0.0348 c 0.55429,-0.0191 0.93978,-0.14488 0.85665,-0.27939 -0.0831,-0.1345 0.0587,-0.30221 0.31512,-0.37268 0.25644,-0.0705 -0.01,-0.0753 -0.59208,-0.0108 -0.58208,0.0645 -1.23692,-0.007 -1.4552,-0.15982 -0.33456,-0.23362 -0.26381,-0.39086 0.4506,-1.00141 l 0.84749,-0.72428 -1.50894,-3.68637 c -1.47115,-3.59403 -1.54143,-3.70622 -2.80597,-4.47888 l -1.29703,-0.79252 -0.613408,0.76929 c -0.485259,0.60857 -0.68136,0.70132 -0.938699,0.44399 -0.533049,-0.53305 -0.704803,-0.39698 -1.509641,1.19605 -0.422746,0.83675 -1.025523,1.75337 -1.339504,2.03695 -0.632918,0.57162 -2.397403,3.36581 -2.397403,3.79645 0,0.15074 0.327422,0.3835 0.727604,0.51725 0.674079,0.22529 0.625423,0.25678 -0.661458,0.42803 -1.008446,0.13421 -1.389062,0.29887 -1.389062,0.60093 0,0.2832 0.14391,0.36085 0.450626,0.24315 0.614157,-0.23568 3.283441,0.11845 3.102283,0.41157 -0.0799,0.12928 -0.644093,0.17715 -1.253775,0.10638 -0.78291,-0.0909 -0.914221,-0.0666 -0.447051,0.0825 0.598797,0.19116 0.551587,0.22918 -0.498343,0.40146 -0.637891,0.10466 -1.082152,0.26795 -0.987247,0.36285 0.370309,0.37031 2.135391,0.83656 2.280163,0.60232 0.09081,-0.14693 0.931833,-0.13588 2.125244,0.0279 5.083861,0.69772 7.385841,0.87279 6.869771,0.52243 -0.28579,-0.19401 -0.10064,-0.22485 0.66145,-0.11018 0.58209,0.0876 1.16669,0.25805 1.29913,0.37882 0.13244,0.12075 0.36266,0.14424 0.5116,0.0522 0.15328,-0.0947 0.0564,-0.24259 -0.22323,-0.34067 z m -7.502757,-1.29392 c -0.676611,-0.42872 0.188402,-2.92977 1.49705,-4.32848 0.374417,-0.40018 0.772147,-0.7276 0.883847,-0.7276 0.37638,0 0.58599,1.89484 0.23371,2.11256 -0.20476,0.12655 -0.22869,0.26374 -0.0638,0.36565 0.14516,0.0897 0.57573,0.75944 0.95683,1.48829 l 0.69292,1.32516 -1.92078,-0.004 c -1.056428,-0.002 -2.082331,-0.10641 -2.279787,-0.23153 z m -7.6396,-0.20255 c -0.179131,-0.0725 -0.536319,-0.0769 -0.79375,-0.01 -0.257431,0.0671 -0.110869,0.12638 0.325694,0.13177 0.436562,0.005 0.647188,-0.0495 0.468056,-0.12197 z m 2.288021,-2.10935 c 0.234281,-0.20901 -0.24306,-0.41336 -1.295201,-0.55448 -1.129695,-0.15152 -3.180668,0.35224 -3.180668,0.78124 0,0.22088 4.213376,0.007 4.475869,-0.22676 z m 0.07681,-4.13565 c -0.63609,-0.20377 -0.953905,-0.19648 -1.177395,0.027 -0.231773,0.23177 -0.02016,0.29956 0.871275,0.27911 l 1.177396,-0.027 z M 94.72748,145.279 c 0.08994,-0.14552 -0.08866,-0.26458 -0.396875,-0.26458 -0.308219,0 -0.486813,0.11906 -0.396875,0.26458 0.08994,0.14552 0.268531,0.26458 0.396875,0.26458 0.128344,0 0.306937,-0.11906 0.396875,-0.26458 z m 22.13806,-0.71672 c 0.21422,0.34221 2.3359,-0.21804 2.3359,-0.61682 0,-0.13967 -0.47625,-0.25396 -1.05833,-0.25396 -0.58208,0 -1.05833,-0.11906 -1.05833,-0.26458 0,-0.1467 0.70034,-0.26459 1.57188,-0.26459 0.86454,0 1.64846,-0.1239 1.74206,-0.27534 0.0936,-0.15144 0.38255,-0.20794 0.64213,-0.12555 0.61132,0.19402 1.94598,-0.31197 1.73277,-0.65694 -0.0901,-0.1458 -0.48422,-0.27889 -0.87581,-0.29577 -0.44796,-0.0193 -0.54029,-0.0756 -0.24897,-0.1517 0.25466,-0.0665 0.46302,-0.22714 0.46302,-0.35687 0,-0.49019 -1.04188,-0.76177 -2.41408,-0.62928 l -1.42238,0.13734 0.92102,-0.42337 c 0.61656,-0.28342 1.25068,-0.36768 1.91823,-0.2549 0.63632,0.10751 0.99721,0.0661 0.99721,-0.11432 0,-0.15554 0.29766,-0.3575 0.66146,-0.44881 0.96012,-0.24098 0.81863,-0.45496 -0.5967,-0.9024 l -1.25539,-0.39688 -0.28066,-3.1854 c -0.15436,-1.75197 -0.35942,-3.31283 -0.45567,-3.46858 -0.0963,-0.15575 -0.19707,-1.84771 -0.22401,-3.75991 -0.0332,-2.35322 -0.14441,-3.47673 -0.34428,-3.47673 -0.3727,0 -4.22377,3.90201 -4.62048,4.68159 -0.16248,0.3193 -1.00916,0.96096 -1.88151,1.42592 -1.24782,0.66508 -1.58609,0.97784 -1.58609,1.46643 0,0.4562 -0.23879,0.72081 -0.89964,0.99693 -0.644,0.26908 -0.94814,0.5968 -1.07038,1.15333 -0.0965,0.43951 -0.53928,1.04517 -1.0186,1.39339 -0.46631,0.33877 -1.08597,0.8337 -1.37701,1.09984 -1.46102,1.33601 -2.96596,2.53637 -3.43958,2.74345 -0.40701,0.17795 -0.17679,0.26436 0.99721,0.3743 0.83952,0.0786 1.5171,0.26201 1.50574,0.40753 -0.0274,0.35081 0.90206,0.59586 2.52413,0.66551 l 1.32292,0.0568 -1.05834,0.21773 c -0.58208,0.11975 -1.75066,0.15462 -2.59684,0.0775 -2.00089,-0.18239 -2.99858,0.0446 -2.55349,0.58087 0.17619,0.21228 0.43332,0.38597 0.57142,0.38597 0.1381,0 0.42963,0.17854 0.64784,0.39675 0.21821,0.21821 0.88034,0.47408 1.47139,0.56859 0.73209,0.11707 1.11546,0.32795 1.20271,0.66159 0.14783,0.5653 1.12024,0.64823 2.39409,0.20416 0.57392,-0.20007 0.96205,-0.20248 1.29626,-0.008 0.36761,0.21387 0.386,0.2803 0.0802,0.28963 -0.28152,0.009 -0.30542,0.0703 -0.0822,0.21217 0.17307,0.11005 1.42323,0.12124 2.77812,0.0249 1.64835,-0.11724 2.52223,-0.0813 2.64109,0.10857 z m -3.66543,-1.30764 c 0.0948,-0.0948 -0.0342,-0.32909 -0.28663,-0.52075 -0.25534,-0.19389 -0.31913,-0.35221 -0.1438,-0.35689 0.17331,-0.005 0.3887,0.11065 0.47864,0.25617 0.0899,0.14552 0.48391,0.27295 0.87551,0.28318 0.63574,0.0166 0.65532,0.0429 0.18282,0.24598 -0.63679,0.27364 -1.34713,0.3329 -1.10654,0.0923 z m 3.09092,-0.35689 c 0,-0.14552 0.11906,-0.26458 0.26458,-0.26458 0.14552,0 0.26458,0.11906 0.26458,0.26458 0,0.14552 -0.11906,0.26458 -0.26458,0.26458 -0.14552,0 -0.26458,-0.11906 -0.26458,-0.26458 z m -3.90712,-5.86503 c -0.18074,-0.18074 -0.89362,-0.40218 -1.58419,-0.49209 -1.14999,-0.14973 -1.19439,-0.18096 -0.52797,-0.37144 1.11968,-0.32003 2.7547,0.25041 2.54249,0.88705 -0.0747,0.22411 -0.18895,0.21786 -0.43033,-0.0235 z m 0.90851,-0.13219 c -0.32648,-0.32647 -0.17999,-0.61736 0.31089,-0.61736 0.33678,0 0.58232,-0.31719 0.79497,-1.02695 0.32341,-1.07947 0.62497,-1.42435 1.49587,-1.71078 0.39142,-0.12873 0.34478,-0.034 -0.17918,0.36384 -0.38959,0.29584 -0.78386,0.88167 -0.87614,1.30184 -0.15146,0.68958 -0.9374,1.8658 -1.24672,1.8658 -0.0678,0 -0.20268,-0.0794 -0.29969,-0.17639 z m -18.10192,7.40949 c -0.181901,-0.0734 -0.479557,-0.0734 -0.661458,0 -0.181901,0.0734 -0.03307,0.13346 0.330729,0.13346 0.363802,0 0.512631,-0.0601 0.330729,-0.13346 z m 25.99532,-0.8831 c -0.0899,-0.14552 -0.32806,-0.26459 -0.52917,-0.26459 -0.2011,0 -0.43923,0.11907 -0.52917,0.26459 -0.0931,0.15065 0.13475,0.26458 0.52917,0.26458 0.39442,0 0.62228,-0.11393 0.52917,-0.26458 z m -14.23878,-16.57369 c 0.25179,-0.38428 0.82008,-0.93107 1.26287,-1.2151 l 0.80507,-0.51641 -0.79375,0.17738 c -0.43656,0.0976 -0.98171,0.3467 -1.21145,0.55364 -0.48529,0.43713 -1.1989,0.49269 -1.43438,0.11168 -0.0899,-0.14552 -0.57321,-0.26459 -1.07395,-0.26459 -0.50073,0 -0.91042,0.11907 -0.91042,0.26459 0,0.14552 0.29209,0.26458 0.6491,0.26458 0.38541,0 0.84223,0.26534 1.12448,0.65315 0.61349,0.84291 1.016,0.83556 1.58243,-0.0289 z m 3.03072,-4.94059 c 0.50619,0.0968 0.77502,-0.0373 1.11499,-0.55619 0.32453,-0.4953 0.68324,-0.6869 1.30177,-0.69531 l 0.8538,-0.0116 -1.05834,-0.3835 c -0.98939,-0.35852 -1.08694,-0.34915 -1.49761,0.14391 -0.24161,0.29007 -0.73891,0.5274 -1.10511,0.5274 -0.48001,0 -0.77986,0.22862 -1.07449,0.81922 l -0.40868,0.81922 0.60333,-0.39532 c 0.33183,-0.21742 0.90348,-0.33794 1.27034,-0.26781 z m -4.97057,47.66 c -0.7,-0.73801 -0.79332,-0.98093 -0.5853,-1.52344 l 0.2475,-0.64543 0.67121,0.67121 c 0.49848,0.49848 0.64911,0.89055 0.5853,1.52345 l -0.0859,0.85223 z M 86.393109,146.07275 c -0.342024,-0.22103 -0.33504,-0.25704 0.05053,-0.26053 0.246074,-0.002 0.520991,0.11501 0.610928,0.26053 0.206952,0.33486 -0.143306,0.33486 -0.661458,0 z m -5.76512,-0.67152 c -0.441458,-0.50053 -0.04121,-0.49947 0.621321,0.002 0.387276,0.29292 0.415981,0.38805 0.116715,0.38681 -0.218281,-8e-4 -0.550397,-0.17572 -0.738036,-0.38846 z m -6.455323,-0.83213 c 0.190996,-0.0764 0.419199,-0.067 0.507118,0.0209 0.08792,0.0879 -0.06835,0.15045 -0.347266,0.13897 -0.308224,-0.0127 -0.370919,-0.0754 -0.159852,-0.15986 z m 15.502596,-6.49999 c -0.500045,-0.59061 -0.499847,-0.59182 0.02514,-0.15298 0.291041,0.24328 0.945885,0.49212 1.455208,0.55297 l 0.926042,0.11063 -0.951181,0.0423 c -0.694836,0.0309 -1.087016,-0.11809 -1.455208,-0.55296 z m 2.803263,-0.0727 c 0,-0.0764 0.291661,-0.24973 0.648132,-0.38526 0.684874,-0.26039 1.052396,-1.20673 1.370795,-3.52972 l 0.167373,-1.22112 0.750631,1.03622 c 0.412848,0.56992 1.00018,1.16977 1.305184,1.333 0.456592,0.24436 0.496377,0.36689 0.225221,0.69361 -0.181131,0.21825 -0.55749,0.33715 -0.836353,0.26423 -0.669885,-0.17518 -1.249733,0.0641 -1.249733,0.5156 0,0.19976 -0.471506,0.60374 -1.047792,0.89774 -1.091237,0.55671 -1.333458,0.62858 -1.333458,0.3957 z m -12.435417,-1.16846 c 0,-0.45838 0.465695,-0.54319 0.796168,-0.14499 0.27209,0.32784 0.232719,0.39396 -0.234604,0.39396 -0.30886,0 -0.561564,-0.11204 -0.561564,-0.24897 z m -1.058333,-1.03168 c 0,-0.11314 0.174807,-0.43683 0.388461,-0.7193 0.575073,-0.76032 0.488985,-1.33539 -0.291851,-1.9496 L 78.384246,132.579 h 0.656552 c 0.394032,0 1.043057,-0.37537 1.623181,-0.93878 0.531647,-0.51632 0.966629,-0.80696 0.966629,-0.64584 0,0.16111 0.119063,0.21935 0.264584,0.12941 0.145521,-0.0899 0.264583,-0.0374 0.264583,0.11668 0,0.15411 -0.178594,0.2802 -0.396875,0.2802 -0.218281,0 -0.396875,0.17859 -0.396875,0.39687 0,0.36344 0.323087,0.51832 0.879562,0.42165 0.119958,-0.0208 0.141496,0.0861 0.04786,0.23757 -0.09363,0.1515 -0.281076,0.20696 -0.416541,0.12323 -0.135466,-0.0837 -0.25467,0.0632 -0.264898,0.32642 -0.01673,0.43075 -0.03892,0.42666 -0.221719,-0.0409 -0.182995,-0.46804 -0.221283,-0.44717 -0.386374,0.21061 -0.100787,0.40157 -0.11305,0.84371 -0.02725,0.98254 0.0858,0.13883 0.01007,0.25241 -0.168294,0.25241 -0.178362,0 -0.25209,0.0722 -0.163839,0.16046 0.08825,0.0882 -0.04073,0.36685 -0.286632,0.6191 -0.51134,0.52455 -1.37313,0.8921 -1.37313,0.58563 z m -6.614583,-1.89435 c 0,-1.33436 -0.171287,-1.57497 -0.726188,-1.02007 -0.504768,0.50477 -0.686854,-0.8979 -0.251743,-1.93926 0.342641,-0.82006 0.331271,-1.1552 -0.106744,-3.14643 -0.269628,-1.22574 -0.491558,-2.52627 -0.493177,-2.89008 -0.0032,-0.70957 1.318196,-3.50787 2.025428,-4.28935 0.594434,-0.65685 2.687288,-1.79606 3.299538,-1.79606 0.278005,0 1.0646,-0.53578 1.747989,-1.19063 0.683389,-0.65484 1.476331,-1.19062 1.762094,-1.19062 0.285762,0 0.946665,-0.29598 1.468673,-0.65773 1.160474,-0.80421 4.640492,-2.02038 5.184206,-1.81174 0.217646,0.0835 1.135744,-0.21119 2.040217,-0.6549 0.904474,-0.44372 2.808465,-1.15035 4.23109,-1.57031 1.782225,-0.5261 2.712529,-0.94334 2.991566,-1.34173 0.440243,-0.62853 0.102587,-0.80951 -0.393988,-0.21118 -0.338916,0.40837 -5.116494,1.35385 -5.703282,1.12868 -0.205236,-0.0787 -0.667425,0.0883 -1.027088,0.37119 -0.359662,0.28291 -0.873276,0.51703 -1.141365,0.52027 -0.268089,0.003 -0.785091,0.23871 -1.148893,0.52328 -0.863117,0.67514 -2.445722,0.66833 -3.956525,-0.017 l -1.1784,-0.53457 -0.858632,0.93725 c -0.472247,0.51549 -0.964652,0.93725 -1.094234,0.93725 -0.129582,0 -0.371224,0.29765 -0.536984,0.66146 -0.228955,0.5025 -0.502377,0.66145 -1.13778,0.66145 -0.46002,0 -0.968588,0.17638 -1.130151,0.39194 -0.165271,0.22051 -0.432746,0.30398 -0.61154,0.19082 -0.220158,-0.13933 0.206406,-0.88606 1.388477,-2.43064 0.938446,-1.22624 1.770981,-2.43343 1.850078,-2.68264 0.0791,-0.24922 1.299751,-1.10405 2.712564,-1.89962 4.292319,-2.41708 5.347151,-2.88757 6.068128,-2.70662 0.917345,0.23024 3.160747,-0.55709 3.319739,-1.16507 0.174728,-0.66816 2.671706,-1.22227 7.997552,-1.77474 l 4.233333,-0.43914 1.71979,0.66165 c 0.94589,0.36391 3.50143,1.2395 5.67899,1.94575 3.23008,1.04762 4.33857,1.54542 6.01927,2.70317 1.13304,0.7805 2.06008,1.4837 2.06008,1.56267 0,0.079 -0.32743,0.0579 -0.72761,-0.0468 -0.40018,-0.10472 -1.48843,-0.35303 -2.41833,-0.55179 -0.9299,-0.19876 -1.89228,-0.42536 -2.13861,-0.50354 -0.30026,-0.0953 -0.54534,0.0717 -0.74356,0.50678 -0.16262,0.35691 -0.54675,0.7833 -0.85361,0.94753 -0.47602,0.25476 -0.54593,0.22954 -0.47613,-0.17175 0.0629,-0.36183 -0.1624,-0.51568 -0.97653,-0.66675 -0.58208,-0.10802 -1.37745,-0.13481 -1.76748,-0.0595 -0.68683,0.13256 -2.06898,1.61346 -2.06898,2.21682 0,0.16341 -0.5285,0.5309 -1.17445,0.81663 -0.64595,0.28573 -1.24523,0.72552 -1.33172,0.97731 -0.0865,0.25179 -0.68908,0.84852 -1.33909,1.32607 -1.22117,0.8972 -1.55609,0.96297 -0.6834,0.13422 0.56014,-0.53195 0.35882,-1.55467 -0.36036,-1.83065 -0.68047,-0.26112 -1.725561,0.13545 -1.725561,0.65478 0,0.2629 -0.291354,0.75172 -0.647452,1.08626 -0.404299,0.37981 -0.677553,0.96733 -0.727604,1.56439 -0.07463,0.89028 -0.152289,0.96778 -1.127273,1.12495 -0.776793,0.12521 -1.27099,0.43338 -1.914292,1.1937 -0.476946,0.5637 -0.868945,1.10879 -0.871109,1.21132 -0.0098,0.46594 -1.432494,1.56747 -1.874983,1.45176 -0.538736,-0.14089 -1.147883,0.43663 -1.427556,1.35344 -0.20319,0.66608 -1.145263,0.70073 -0.962084,0.0354 0.05772,-0.20964 0.135424,-0.85741 0.172682,-1.43949 0.03726,-0.58209 0.36765,-1.80122 0.734203,-2.7092 0.366553,-0.90797 0.564392,-1.71393 0.439642,-1.79103 -0.12475,-0.0771 -1.192489,0.34674 -2.372753,0.94187 -1.180264,0.59513 -2.557138,1.14879 -3.05972,1.23035 -0.502582,0.0816 -0.913785,0.24604 -0.913785,0.36551 0,0.11948 0.434983,0.63968 0.966629,1.15601 0.531646,0.51633 0.885438,0.93878 0.786205,0.93878 -0.09923,0 -0.888008,-0.35719 -1.752834,-0.79375 -0.864825,-0.43657 -1.665102,-0.79383 -1.778392,-0.79392 -0.113291,-9e-5 -0.165056,0.59033 -0.115034,1.31205 0.0582,0.83972 -0.06224,1.61928 -0.334497,2.16503 -0.499674,1.00162 -0.262366,1.27512 1.111942,1.28154 0.991411,0.005 3.004908,0.79301 2.506173,0.98129 -0.18128,0.0684 -1.740476,-0.2425 -3.464881,-0.69099 -3.459716,-0.8998 -4.017759,-0.9812 -3.555153,-0.51859 0.163253,0.16325 0.236946,0.45286 0.163763,0.64357 -0.07657,0.19955 0.20504,0.52159 0.663384,0.75861 1.279705,0.66176 1.266051,1.2349 -0.06245,2.62144 -0.644582,0.67275 -1.212602,1.3305 -1.262266,1.46168 -0.194651,0.51413 -3.425035,2.35671 -4.407054,2.51374 -1.019706,0.16306 -1.038951,0.18687 -1.011049,1.25099 0.02066,0.78808 -0.110971,1.1867 -0.4813,1.45749 -0.80739,0.59038 -0.937771,0.45827 -0.937771,-0.95018 z m 19.264974,-5.20783 c 0.190996,-0.0764 0.419199,-0.067 0.507118,0.0209 0.08792,0.0879 -0.06835,0.15045 -0.347266,0.13896 -0.308224,-0.0127 -0.370919,-0.0754 -0.159852,-0.15985 z m -3.854644,-7.13878 c -0.465518,-0.18768 -0.136879,-0.61798 0.471981,-0.61798 0.340407,0 0.45556,0.12949 0.352952,0.39688 -0.158741,0.41367 -0.271981,0.44402 -0.824933,0.2211 z"
         id="path1046" />
    </g>
  </g>
</svg>
